<?xml version="1.0" encoding="utf-8"?>
<!-- Generator: Adobe Illustrator 19.2.0, SVG Export Plug-In . SVG Version: 6.00 Build 0)  -->
<svg version="1.1" id="Layer_1" xmlns="http://www.w3.org/2000/svg" xmlns:xlink="http://www.w3.org/1999/xlink" x="0px" y="0px"
	 viewBox="0 0 237.9 58.1" style="enable-background:new 0 0 237.9 58.1;" xml:space="preserve">
<style type="text/css">
	.st0{fill:#CC0000;}
</style>
<g>
	<path class="st0" d="M-0.3,45.4c0.1-2.1,0.3-5.2,0.3-8V0h5.6v19.5h0.1c2-3.5,5.6-5.7,10.6-5.7c7.7,0,13.1,6.4,13.1,15.8
		c0,11.1-7,16.6-13.9,16.6c-4.5,0-8.1-1.7-10.4-5.8H4.9l-0.3,5.1C4.6,45.4-0.3,45.4-0.3,45.4z M5.6,33c0,0.7,0.1,1.4,0.3,2
		c1.1,3.9,4.4,6.6,8.4,6.6c5.9,0,9.4-4.8,9.4-11.9c0-6.2-3.2-11.5-9.2-11.5c-3.8,0-7.4,2.6-8.6,6.9c-0.1,0.6-0.3,1.4-0.3,2.3
		C5.6,27.5,5.6,33,5.6,33z"/>
	<path class="st0" d="M52.5,45.4L52,41.5h-0.2c-1.7,2.4-5.1,4.6-9.5,4.6c-6.3,0-9.5-4.4-9.5-8.9c0-7.5,6.7-11.6,18.6-11.5v-0.6
		c0-2.6-0.7-7.2-7-7.2c-2.9,0-5.9,0.9-8.1,2.3l-1.3-3.7c2.6-1.7,6.3-2.8,10.2-2.8c9.5,0,11.8,6.5,11.8,12.7V38
		c0,2.7,0.1,5.3,0.5,7.4C57.6,45.4,52.5,45.4,52.5,45.4z M51.6,29.6c-6.1-0.1-13.1,1-13.1,7c0,3.6,2.4,5.4,5.3,5.4
		c4,0,6.6-2.6,7.5-5.2c0.2-0.6,0.3-1.2,0.3-1.8V29.6z"/>
	<path class="st0" d="M64.5,0h5.6v45.4h-5.6V0z"/>
	<path class="st0" d="M76.9,39.7c1.7,1.1,4.6,2.2,7.4,2.2c4.1,0,6-2,6-4.6c0-2.7-1.6-4.2-5.8-5.7c-5.6-2-8.2-5.1-8.2-8.8
		c0-5,4-9.1,10.7-9.1c3.1,0,5.9,0.9,7.6,1.9l-1.4,4.1C92.1,19,89.8,18,87,18c-3.3,0-5.2,1.9-5.2,4.2c0,2.6,1.9,3.7,5.9,5.2
		c5.4,2,8.1,4.7,8.1,9.3c0,5.4-4.2,9.3-11.6,9.3c-3.4,0-6.5-0.8-8.7-2.1L76.9,39.7z"/>
	<path class="st0" d="M119.2,45.4l-0.4-3.9h-0.2c-1.7,2.4-5.1,4.6-9.5,4.6c-6.3,0-9.5-4.4-9.5-8.9c0-7.5,6.7-11.6,18.6-11.5v-0.6
		c0-2.6-0.7-7.2-7-7.2c-2.9,0-5.9,0.9-8.1,2.3l-1.3-3.7c2.6-1.7,6.3-2.8,10.2-2.8c9.5,0,11.8,6.5,11.8,12.7V38
		c0,2.7,0.1,5.3,0.5,7.4C124.4,45.4,119.2,45.4,119.2,45.4z M118.4,29.6c-6.1-0.1-13.1,1-13.1,7c0,3.6,2.4,5.4,5.3,5.4
		c4,0,6.6-2.6,7.5-5.2c0.2-0.6,0.3-1.2,0.3-1.8C118.4,35,118.4,29.6,118.4,29.6z"/>
	<path class="st0" d="M131.3,22.8c0-3.2-0.1-5.8-0.3-8.4h4.9l0.3,5h0.2c1.7-2.9,4.6-5.7,9.7-5.7c4.2,0,7.4,2.6,8.8,6.2h0.1
		c1-1.7,2.2-3.1,3.5-4c1.9-1.4,3.9-2.2,6.8-2.2c4.1,0,10.2,2.7,10.2,13.4v18.2H170V27.9c0-6-2.2-9.5-6.7-9.5c-3.2,0-5.7,2.4-6.7,5.1
		c-0.3,0.8-0.4,1.8-0.4,2.8v19.1h-5.5V26.9c0-4.9-2.2-8.5-6.5-8.5c-3.5,0-6.1,2.8-7,5.6c-0.3,0.8-0.4,1.8-0.4,2.8v18.7h-5.5
		L131.3,22.8L131.3,22.8z"/>
	<path class="st0" d="M189.3,5.8c0.1,1.9-1.3,3.5-3.6,3.5c-2,0-3.4-1.5-3.4-3.5c0-2,1.5-3.5,3.5-3.5C187.9,2.2,189.3,3.8,189.3,5.8z
		 M183,45.4v-31h5.6v31H183z"/>
	<path class="st0" d="M217.7,40.6h-0.1c-1.7,3.1-5.1,5.5-10.1,5.5c-7.2,0-13.1-6.3-13.1-15.7c0-11.6,7.5-16.7,14-16.7
		c4.8,0,8,2.4,9.5,5.4h0.1l0.2-4.7h5.3c-0.1,2.6-0.2,5.3-0.2,8.5v35.1h-5.6L217.7,40.6L217.7,40.6z M217.7,27c0-0.8-0.1-1.7-0.3-2.4
		c-0.8-3.5-3.8-6.4-8.1-6.4c-5.8,0-9.3,4.9-9.3,11.9c0,6.1,2.9,11.5,9.2,11.5c3.6,0,6.8-2.2,8.1-6.1c0.3-0.8,0.4-1.9,0.4-2.7
		L217.7,27L217.7,27z"/>
</g>
<g>
	<path class="st0" d="M237.9,18.1c0,2.6-2,4.6-4.7,4.6c-2.6,0-4.7-2-4.7-4.6c0-2.5,2.1-4.6,4.7-4.6
		C235.9,13.5,237.9,15.6,237.9,18.1z M229.7,18.1c0,2,1.5,3.7,3.6,3.7c2,0,3.5-1.6,3.5-3.6c0-2-1.5-3.7-3.5-3.7
		S229.7,16.1,229.7,18.1z M232.5,20.5h-1.1v-4.6c0.4-0.1,1-0.1,1.8-0.1c0.9,0,1.3,0.1,1.6,0.3c0.3,0.2,0.4,0.6,0.4,1
		c0,0.5-0.4,0.9-1,1.1v0.1c0.4,0.2,0.7,0.5,0.8,1.1c0.1,0.7,0.2,1,0.3,1.1h-1.1c-0.1-0.2-0.2-0.6-0.4-1.1c-0.1-0.5-0.4-0.7-1-0.7
		h-0.5L232.5,20.5L232.5,20.5z M232.5,17.9h0.5c0.6,0,1.1-0.2,1.1-0.7c0-0.4-0.3-0.7-1-0.7c-0.3,0-0.5,0-0.6,0.1V17.9z"/>
</g>
</svg>
