<?xml version="1.0" encoding="utf-8"?>
<!-- Generator: Adobe Illustrator 19.1.0, SVG Export Plug-In . SVG Version: 6.00 Build 0)  -->
<svg version="1.1" id="Layer_1" xmlns="http://www.w3.org/2000/svg" xmlns:xlink="http://www.w3.org/1999/xlink" x="0px" y="0px"
	 viewBox="0 0 892.9 360" style="enable-background:new 0 0 892.9 360;" xml:space="preserve">
<style type="text/css">
	.st0{fill:#1C6663;}
	.st1{fill-rule:evenodd;clip-rule:evenodd;fill:#1C6663;}
</style>
<g>
	<path class="st0" d="M407.1,253.3h-17.7v-83.4h-11.8v-15.5h11.2v-3c0-10.1,2.8-17.7,8.5-22.8c5.6-5.1,14-7.7,25.2-7.7v16.4H421
		c-5.3,0-9,1.2-11.3,3.6c-2.3,2.4-3.4,6.4-3.4,12v1.4h16.2v15.5h-15.5V253.3z"/>
	<rect x="441.2" y="122.5" class="st0" width="17.6" height="130.8"/>
	<path class="st0" d="M559.5,253.3h-17v-11c-3.6,4.5-7.5,7.8-11.9,10c-4.4,2.2-9.3,3.3-14.8,3.3c-12.4,0-22.1-3.9-28.9-11.6
		c-6.8-7.7-10.2-18.6-10.2-32.6v-56.9h17.8v51.8c0,10.7,1.9,18.6,5.7,24c3.8,5.3,9.4,8,17,8c4.7,0,8.9-1.1,12.5-3.3
		c3.7-2.2,6.6-5.3,8.7-9.4c1.3-2.5,2.3-5.5,2.8-9c0.6-3.5,0.9-9.1,0.9-16.8v-45.3h17.6V253.3z"/>
	<path class="st0" d="M637.7,203.5c0-12-1.7-20.8-5.1-26.2c-3.4-5.5-8.8-8.2-16.2-8.2c-7.6,0-13.3,2.7-16.9,8.2
		c-3.6,5.5-5.5,14-5.5,25.5v50.6h-16.9v-98.8H593v11.6c3.3-4.4,7-7.7,11.1-9.9c4.2-2.2,8.9-3.3,14.2-3.3c7.2,0,13.1,1.4,17.9,4.1
		c4.8,2.7,8.7,7.1,11.7,12.9c3.1-5.7,7.1-10,12.2-12.8c5-2.8,11.2-4.2,18.5-4.2c11.2,0,20.1,3.7,26.8,10.9
		c6.7,7.3,10.1,17,10.1,29.1v60.4h-17.9v-57.6c0-8.4-1.8-15-5.5-19.7c-3.7-4.7-8.9-7-15.5-7c-7.7,0-13.2,2.5-16.6,7.5
		c-3.4,5-5.1,13.4-5.1,25.1v51.7h-17.3V203.5z"/>
	<path class="st0" d="M809.8,194.5c-2.2-8.2-6-14.5-11.5-18.9c-5.5-4.5-12-6.7-19.6-6.7c-7.8,0-14.5,2.3-20.3,6.9
		c-5.7,4.6-9.7,10.9-11.8,18.8H809.8z M746.2,210.5c1.5,8.2,5.2,15,11.2,20.1c5.9,5.1,13,7.7,21.2,7.7c5.9,0,11.2-1.4,16-4.2
		c4.8-2.8,8.6-6.8,11.5-11.9h20c-4.5,10.9-10.9,19.3-19.1,25.1c-8.2,5.8-17.7,8.7-28.5,8.7c-7.3,0-14-1.3-20.1-3.9
		c-6-2.6-11.5-6.4-16.4-11.6c-4.6-4.8-8.2-10.5-10.8-16.9c-2.6-6.4-3.9-13-3.9-19.7c0-7,1.2-13.5,3.6-19.5c2.4-6,5.9-11.6,10.5-16.5
		c4.9-5.4,10.5-9.4,16.6-12.2c6.2-2.7,12.9-4.1,20.2-4.1c8.7,0,16.7,2,24.2,6.1c7.5,4,13.6,9.7,18.5,16.9c2.9,4.5,5,9.4,6.4,14.8
		c1.4,5.4,2.1,11.5,2.1,18.4v2.8H746.2z"/>
	<path class="st1" d="M298.3,161.8c-36.5,89.4-97.3,22-193.8,65.8C125.9,136,233.6,187.6,298.3,161.8"/>
	<path class="st1" d="M195.5,49.8c-71.9,0-130.2,58.3-130.2,130.2c0,26.4,7.8,50.9,21.3,71.4c1.2,1.8,2.8,4.3,4.2,6.3
		c-3.9,6.3-7,13.6-9,22.1c22.7-13.2,41.7-20.6,64.5-20.5c36.8,0,53.7-39.3,53.7-39.3c-33.8-0.4-72.9,2-97.3,23.5
		c-1.3-1.8-2.7-3.9-3.7-5.5c-10.3-17-16.2-36.9-16.2-58.1c0-62.2,50.4-112.6,112.6-112.6c36.2,0,68.5,17.1,89.1,43.7
		c6.5-0.6,12.9-1.8,19.1-3.7C280.3,72.7,240.6,49.8,195.5,49.8z"/>
	<path class="st1" d="M116,272.8c4.9-1.8,9.8-2.8,10.9-2.6c28,15.4,45.9,22.4,68.6,22.4c62.2,0,112.6-50.4,112.6-112.6
		c0-8.7-1-17.1-2.8-25.2c-0.6-2.6-1.3-5.1-2-7.6c-40.8,27.5-122.1-5.8-176.8,26.1c24.1-89,99.3-46.6,163.2-55.1
		c6.2-0.8,12.3-2.1,18.3-4.1c6.5-2.1,12.8-5,18.9-9c-1.9,11.5-5.2,20.6-9.8,27.8c1.1,2.9,2.1,5.8,3,8.7c3.7,12.1,5.7,25,5.7,38.3
		c0,71.9-58.3,130.2-130.2,130.2c-32.5,0-70.9-15.9-89.2-32.7C106.3,277.5,112.7,274,116,272.8z"/>
</g>
</svg>
