<?xml version="1.0" encoding="utf-8"?>
<!-- Generator: Adobe Illustrator 19.2.0, SVG Export Plug-In . SVG Version: 6.00 Build 0)  -->
<svg version="1.1" id="wordmark_black" xmlns="http://www.w3.org/2000/svg" xmlns:xlink="http://www.w3.org/1999/xlink" x="0px"
	 y="0px" viewBox="0 0 367 77.9" style="enable-background:new 0 0 367 77.9;" xml:space="preserve">
<style type="text/css">
	.st0{fill:none;}
	.st1{fill:#111111;}
</style>
<g>
	<rect x="-46.1" y="-44.4" class="st0" width="450" height="149"/>
	<g>
		<path class="st1" d="M109.7,38.4c0,11.9-10.1,21.4-22.6,21.4s-22.6-9.5-22.6-21.4c0-12,10.1-21.6,22.6-21.6S109.7,26.5,109.7,38.4
			 M95.3,38.3c0-4.6-3.6-8.4-8.3-8.4c-4.6,0-8.3,3.8-8.3,8.4c0,4.6,3.6,8.3,8.3,8.3C91.6,46.6,95.3,42.9,95.3,38.3"/>
		<path class="st1" d="M170.3,29.7c0,17.1-12.1,28.8-29.1,28.8h-24.6c-1.2,0-2.1-0.9-2.1-2V3.2c0-1.1,0.9-2,2.1-2h24.6
			C158.2,1.2,170.3,12.6,170.3,29.7 M154.7,29.7c0-8-5.6-15-13.9-15h-11.5v30.3h11.5C149.1,45.1,154.7,37.8,154.7,29.7"/>
		<path class="st1" d="M192.2,16.8c4.9,0,8.8,1.8,10.5,4.3v-1.2c0-1.1,0.9-1.9,1.9-1.9h10.3c1.1,0,1.9,0.8,1.9,1.9v36.8
			c0,1.1-0.8,1.9-1.9,1.9h-10.3c-1.1,0-1.9-0.8-1.9-1.9v-1.2c-1.7,2.5-5.7,4.3-10.6,4.3c-10.4,0-20.4-8.3-20.4-21.6
			S181.8,16.8,192.2,16.8 M194.3,46.7c4.6,0,8.3-3.8,8.3-8.4S199,30,194.3,30c-4.6,0-8.3,3.8-8.3,8.4S189.7,46.7,194.3,46.7"/>
		<path class="st1" d="M238.9,16.8c5,0,8.9,1.9,10.7,4.1V3.1c0-1.1,0.9-1.9,1.9-1.9h10.5c1.1,0,1.9,0.8,1.9,1.9v53.6
			c0,1.1-0.8,1.9-1.9,1.9h-10.3c-1.1,0-1.9-0.8-1.9-1.9v-1.2c-2.1,2.5-5.7,4.3-10.6,4.3c-10.4,0-20.4-8.3-20.4-21.6
			S228.6,16.8,238.9,16.8 M241.3,46.7c4.6,0,8.3-3.8,8.3-8.4S246,30,241.3,30c-4.6,0-8.3,3.8-8.3,8.4S236.7,46.7,241.3,46.7"/>
		<path class="st1" d="M285.9,16.8c5,0,8.9,1.9,10.7,4.1V3.1c0-1.1,0.9-1.9,1.9-1.9h10.5c1.1,0,1.9,0.8,1.9,1.9v53.6
			c0,1.1-0.8,1.9-1.9,1.9h-10.3c-1.1,0-1.9-0.8-1.9-1.9v-1.2c-2.1,2.5-5.7,4.3-10.6,4.3c-10.4,0-20.4-8.3-20.4-21.6
			S275.6,16.8,285.9,16.8 M288.4,46.7c4.6,0,8.3-3.8,8.3-8.4S293,30,288.4,30s-8.3,3.8-8.3,8.4S283.7,46.7,288.4,46.7"/>
		<path class="st1" d="M345.4,64.5c-2.6,8.6-8.6,13.4-18,13.4c-5.1,0-10.1-1.7-13.3-4.5c-0.5-0.5-0.8-1.1-0.8-1.7
			c0-0.5,0.2-1.1,0.7-1.7l3.9-5.9c0.6-0.8,1.5-0.9,1.7-0.9c0.9,0,1.3,0.2,2.1,0.8c1.2,0.8,2.9,1.8,4.8,1.8c1.6,0,3.7-0.7,4.5-3.1
			l1.3-4.1h-6.3c-1.3,0-2.1-0.9-2.5-2l-10.5-35.4c-0.2-0.9-0.3-1.4-0.3-1.7c0-0.8,0.6-1.5,1.7-1.5h12.4c1.1,0,1.7,1,2,2l6.9,25.4
			h0.5l5.5-25.4c0.2-1,0.9-2,2-2h12.6c1.2,0,1.7,0.7,1.7,1.5c0,0.3-0.1,0.8-0.3,1.7L345.4,64.5z"/>
		<path class="st1" d="M49.7,50.6c-5,6.9-13.2,9.2-20.5,9.2C12.4,59.8,0,47.3,0,29.9C0,13.3,13.4,0,30.9,0c13,0,23.4,5.5,28.1,16
			c0.6,1.2,1,3.2-2.5,3.8l-9.2,1.6c-2.1,0.4-3.3-1-3.7-1.6c-2.7-3.7-7.1-6.2-12.4-6.2c-9.2,0-15.7,7-15.7,16.3
			c0,10.3,7.4,16.3,15.5,16.3c5.4,0,9.8-2,12.7-5.8h-8.1c-1.2,0-2.1-0.9-2.1-2v-7.7c0-1.1,0.9-2,2.1-2h24.7c1.2,0,2.1,0.9,2.1,2
			v25.8c0,1.1-0.9,2-2.1,2h-8.6c-1.2,0-2.1-0.9-2.1-2V50.6z"/>
		<g>
			<path class="st1" d="M359.2,13.7c-0.4-0.4-0.8-0.9-1-1.5c-0.2-0.6-0.3-1.1-0.3-1.7c0-0.6,0.1-1.2,0.3-1.7c0.2-0.6,0.6-1,1-1.5
				c0.4-0.4,0.9-0.7,1.5-1c0.6-0.2,1.1-0.3,1.8-0.3s1.2,0.1,1.8,0.3c0.6,0.2,1,0.5,1.5,1c0.4,0.4,0.8,0.9,1,1.5
				c0.2,0.6,0.3,1.1,0.3,1.7c0,0.6-0.1,1.2-0.3,1.7c-0.2,0.6-0.6,1-1,1.5c-0.4,0.4-0.9,0.7-1.5,1c-0.6,0.2-1.1,0.3-1.8,0.3
				s-1.2-0.1-1.8-0.3C360.1,14.4,359.7,14.1,359.2,13.7z M362.5,14.2c1,0,1.9-0.4,2.6-1.1c0.7-0.7,1.1-1.6,1.1-2.6
				c0-1-0.4-1.9-1.1-2.6c-0.7-0.7-1.6-1.1-2.6-1.1c-1,0-1.9,0.4-2.6,1.1s-1.1,1.6-1.1,2.6s0.4,1.9,1.1,2.6
				C360.5,13.8,361.4,14.2,362.5,14.2z M361.5,13.2h-0.9c0,0-0.1,0-0.1-0.1s-0.1-0.1-0.1-0.1V8c0,0,0-0.1,0.1-0.1
				c0,0,0.1-0.1,0.1-0.1h2c0.6,0,1.1,0.2,1.5,0.5c0.4,0.3,0.6,0.8,0.6,1.3c0,0.3-0.1,0.6-0.3,0.9c-0.2,0.3-0.4,0.5-0.7,0.6l1.1,1.8
				c0,0.1,0.1,0.1,0,0.2c0,0.1-0.1,0.1-0.2,0.1h-0.9c-0.1,0-0.1,0-0.2,0c-0.1,0-0.1-0.1-0.2-0.2l-1-1.6h-0.7V13c0,0,0,0.1-0.1,0.1
				C361.6,13.1,361.6,13.2,361.5,13.2z M363.3,9.6c0-0.2-0.1-0.4-0.2-0.5c-0.1-0.1-0.3-0.2-0.6-0.2h-0.9v1.4h0.9
				c0.2,0,0.4-0.1,0.6-0.2C363.3,10,363.3,9.8,363.3,9.6z"/>
		</g>
	</g>
</g>
</svg>
