<svg xmlns="http://www.w3.org/2000/svg" viewBox="0 0 469.6 60.4"><defs><style>.cls-1{fill:#30302f;}</style></defs><title>Asset 3</title><g id="Layer_2" data-name="Layer 2"><g id="Layer_1-2" data-name="Layer 1"><polygon class="cls-1" points="394.45 0.25 386.56 0.25 365.15 60.31 374.73 60.31 378.42 48.85 385.12 48.85 391.55 41.52 380.67 41.52 389.66 13.85 391.46 13.85 406.14 60.31 415.72 60.31 394.45 0.25"/><polygon class="cls-1" points="39.39 0.17 39.39 26.05 9.25 26.05 9.25 0.17 9.09 0.17 0 0.17 0 60.23 8.77 60.23 9.25 60.23 9.25 34.03 39.39 34.03 39.39 60.23 48.64 60.23 48.64 0.17 39.39 0.17"/><polygon class="cls-1" points="242.71 0.17 242.71 26.05 212.57 26.05 212.57 0.17 212.41 0.17 203.32 0.17 203.32 60.23 212.09 60.23 212.57 60.23 212.57 34.03 242.71 34.03 242.71 60.23 251.96 60.23 251.96 0.17 242.71 0.17"/><polygon class="cls-1" points="101.04 0.17 93.15 0.17 71.74 60.23 81.32 60.23 85 48.76 91.71 48.76 98.14 41.44 87.26 41.44 96.25 13.77 98.05 13.77 112.73 60.23 122.31 60.23 101.04 0.17"/><polygon class="cls-1" points="132.77 0 132.77 0.25 135.62 8.33 152.07 8.33 152.07 60.23 161.36 60.23 161.36 8.33 181.01 8.33 181.01 0 132.77 0"/><polygon class="cls-1" points="275.2 0.17 289.77 60.23 301.38 60.23 313 15.1 315.02 15.1 326.45 60.23 338.25 60.23 352.63 0.17 343.04 0.17 332.9 48.76 331.06 48.76 318.34 0.17 309.86 0.17 296.96 48.76 295.3 48.76 284.79 0.17 275.2 0.17"/><polygon class="cls-1" points="427.56 0.17 444.3 34.27 444.3 60.4 452.67 60.4 452.67 34.28 469.6 0.17 460.06 0.17 448.55 25.49 436.93 0.17 427.56 0.17"/></g></g></svg>