<?xml version="1.0" encoding="utf-8"?>
<!-- Generator: Adobe Illustrator 22.0.1, SVG Export Plug-In . SVG Version: 6.00 Build 0)  -->
<svg version="1.1" id="Layer_1" xmlns:svg="http://www.w3.org/2000/svg"
	 xmlns="http://www.w3.org/2000/svg" xmlns:xlink="http://www.w3.org/1999/xlink" x="0px" y="0px" viewBox="0 0 185.6 34.8"
	 style="enable-background:new 0 0 185.6 34.8;" xml:space="preserve">
<style type="text/css">
	.st0{fill:#EDB848;}
	.st1{fill:#4E4E4E;}
</style>
<g>
	<path class="st0" d="M12.7,0.6c13.1,14,0.8,26.2-5.2,23.3c-5-2.6-0.2-10.2,6.4-11.9l0.1,0c-6.9,1.3-13.2,9.8-6.8,13.2
		C14.1,28.3,27.5,15.3,12.7,0.6L12.7,0.6z"/>
	<path class="st0" d="M7,14.8C0.4,20.9,3,25.4,5.2,27c8.1,5.7,21.5-6.5,14.4-18.7l0,0C24.7,21,12.6,31,5.6,26.1
		C3.7,24.8,0.9,20.8,7,14.8L7,14.8z"/>
	<path class="st0" d="M22.7,15.1c2.2,8.8-6.8,19-16,15.6c-7.1-2.6-5.5-9-4.8-10.2L2,20.3c-0.7,1.2-1.7,7.1,5,9.4
		C15.2,32.6,23.9,23.8,22.7,15.1L22.7,15.1z"/>
	<path class="st0" d="M0,26.3c0,0.8,1,5.7,6.7,7.4c7.5,2.2,16.1-3.4,16.9-11.7c-1.1,7.6-9.1,12.4-16.2,10.7
		C1.6,31.3,0.1,27.1,0,26.3L0,26.3z"/>
	<path class="st1" d="M81.1,19.2c0.7-0.7,1.7-1.1,2.7-1.1c2.1,0,3.2,0.3,3.9,1v1.5c-0.3,0.2-2.6,0.7-2.9,0.7l-3.7,0.8V19.2z
		 M81.1,24.5l4.3-1c1.6-0.4,4.6-0.7,4.6-2.9v-1.8c0-2.3-3.5-3-6.2-3c-1.8,0-5,0.8-5,3l0,6.6c0,2.6,3.4,3.5,5.6,3.5
		c1.8,0,3-0.2,4.3-0.7c1.4-0.5,0.7-2.6-0.7-2.1c-0.7,0.2-1.7,0.6-3.6,0.6c-1.5,0-2.6-0.5-3.3-1.2V24.5z"/>
	<path class="st0" d="M109.7,17.1c-1.3,0-2.5,0.5-3.4,1.3l-0.2,0.2v0.2v3.3v0.7l0.7-0.2l4.1-0.9c0.8-0.2,2.9-0.6,3.3-0.9l0.2-0.2
		v-0.3v-1.6v-0.2l-0.2-0.2C113.5,17.5,112.1,17.1,109.7,17.1 M110.3,29c-2.1,0-5.5-0.9-5.5-3.2v-7.2c0-1.9,3.2-2.7,4.9-2.7
		c2.3,0,6.2,0.6,6.2,2.7v2c0,1.5-1.9,2-4,2.4c-0.2,0-0.4,0.1-0.6,0.1l-4.6,1.1l-0.4,0.1v0.4v1V26l0.2,0.2c0.7,0.7,1.9,1.5,4,1.5
		c2,0,3.1-0.4,3.9-0.6l0.1,0c0.1,0,0.2,0,0.3,0c0.4,0,0.6,0.3,0.6,0.6c0,0.2,0,0.6-0.5,0.7C113.3,28.8,112.2,29,110.3,29"/>
	<path class="st1" d="M28.3,28.8V16.9c0-0.6,0.5-1.1,1.1-1.1c0.6,0,1.2,0.5,1.2,1.1v11.8H28.3z M29.4,14c-0.9,0-1.6-0.7-1.6-1.5
		c0-0.8,0.7-1.5,1.6-1.5c0.8,0,1.5,0.7,1.5,1.5C31,13.3,30.3,14,29.4,14"/>
	<path class="st1" d="M39.4,28.8c-2.2,0-5.6-0.9-5.6-3.5v-7h-0.4c-0.6,0-1.2-0.5-1.2-1.1c0-0.6,0.5-1.1,1.2-1.1h0.4v-3.8
		c0-0.6,0.5-1.1,1.2-1.1c0.6,0,1.1,0.5,1.1,1.1V16h4.5v2.3h-4.5v7c0.7,0.7,1.8,1.2,3.3,1.2c0.6,0,1.2,0.5,1.2,1.1
		C40.6,28.3,40,28.8,39.4,28.8"/>
	<path class="st1" d="M50,18.4c-0.6-0.2-1.3-0.3-2-0.3c-1.5,0-2.5,0.4-3.3,1v9.8h-2.3V19c0-2.4,3.4-3.2,5.6-3.2c1,0,4.1,0.1,3.5,1.9
		C51.3,18.3,50.6,18.6,50,18.4"/>
	<path class="st1" d="M74.7,19.3c-0.7-0.7-2-1.2-3.5-1.2c-1.5,0-2.4,0.5-3.1,1.2v6.2c0.7,0.7,1.8,1.2,3.3,1.2c1.5,0,2.6-0.5,3.3-1.2
		V19.3z M71.4,29c-2.2,0-5.6-0.9-5.6-3.5v-6.2c0-2.6,3.2-3.5,5.4-3.5c1,0,2.4,0.2,3.5,0.6V11h2.3v14.5C77.1,28,73.6,29,71.4,29"/>
	<path class="st0" d="M103,28.8h-1.4V19v-0.2l-0.1-0.2c-0.6-0.7-1.9-1.5-4-1.5c-1.7,0-3.1,0.5-4,1.5l-0.2,0.2V19v9.7H92V19
		c0-2.4,3.4-3.2,5.5-3.2c2.1,0,5.5,0.9,5.5,3.2V28.8z"/>
	<path class="st0" d="M123.9,28.8c-2.1,0-5.5-0.9-5.5-3.2v-7.6v-0.6h-0.6h-0.4c-0.4,0-0.7-0.3-0.7-0.7c0-0.4,0.3-0.7,0.7-0.7h0.4
		h0.6v-0.6v-3.8c0-0.4,0.3-0.7,0.7-0.7c0.4,0,0.7,0.3,0.7,0.7v3.8V16h0.6h4.3v1.3h-4.3h-0.6v0.6v7.6v0.2l0.2,0.2
		c0.7,0.7,1.9,1.5,4,1.5c0.4,0,0.7,0.3,0.7,0.7C124.5,28.5,124.2,28.8,123.9,28.8"/>
	<path class="st0" d="M139.3,29c-0.1,0-0.4,0-0.6-0.4l-3.3-8.9l-0.5-1.5l-0.5,1.5l-3.3,8.9c-0.1,0.4-0.5,0.4-0.6,0.4
		c-0.1,0-0.5,0-0.6-0.5l-3.8-11.9c-0.1-0.2,0-0.4,0.1-0.5c0.1-0.2,0.3-0.3,0.6-0.3c0.2,0,0.4,0.1,0.5,0.4l2.8,8.7l0.5,1.6l0.6-1.6
		l3.2-8.6c0.1-0.2,0.3-0.5,0.6-0.5c0.3,0,0.5,0.3,0.6,0.5l3.2,8.6l0.6,1.6l0.5-1.6l2.8-8.7c0.1-0.4,0.4-0.4,0.5-0.4
		c0.2,0,0.4,0.1,0.6,0.3c0.1,0.1,0.1,0.3,0.1,0.5l-3.8,11.9C139.8,28.9,139.4,29,139.3,29"/>
	<path class="st0" d="M150.2,17.1c-1.7,0-3.1,0.5-4,1.5l-0.2,0.2V19v6.7v0.2l0.2,0.2c0.7,0.7,1.9,1.5,4,1.5c2.1,0,3.3-0.8,4-1.5
		l0.2-0.2v-0.2V19v-0.2l-0.1-0.2C153.6,18,152.4,17.1,150.2,17.1 M150.2,29c-2.1,0-5.5-0.9-5.5-3.2V19c0-2.4,3.4-3.2,5.5-3.2
		c2.1,0,5.5,0.9,5.5,3.2v6.7C155.7,28.1,152.3,29,150.2,29"/>
	<path class="st0" d="M159.2,28.8h-1.4V18.7c0-2.3,3.6-2.9,5.5-2.9c1.6,0,2.9,0.3,3.2,0.8c0.1,0.1,0.1,0.2,0,0.5
		c-0.1,0.3-0.3,0.5-0.6,0.5c-0.1,0-0.2,0-0.2,0c-0.8-0.3-1.6-0.4-2.4-0.4c-1.9,0-3,0.6-3.9,1.1l-0.3,0.2v0.3V28.8z"/>
	<path class="st0" d="M179.9,28.8H178l-5.5-6.2l-0.4-0.4l-0.4,0.4l-2,1.7l-0.2,0.2v0.3v4.2h-1.4V11.7c0-0.4,0.3-0.7,0.7-0.7
		c0.4,0,0.7,0.3,0.7,0.7v9.8v1.2l0.9-0.8l7-5.9c0.1-0.1,0.3-0.2,0.4-0.2c0.3,0,0.5,0.2,0.6,0.5c0.1,0.2,0.1,0.4-0.2,0.7l-4.6,3.9
		l-0.4,0.4l0.4,0.4L179.9,28.8z"/>
	<path class="st1" d="M61.5,25.6c-0.7,0.7-1.7,1.1-2.7,1.1c-2.1,0-3.2-0.3-3.9-1v-1.5c0.3-0.2,2.6-0.7,2.9-0.7l3.7-0.8V25.6z
		 M61.5,20.3l-4.3,1c-1.6,0.4-4.6,0.7-4.6,2.9v1.8c0,2.3,3.5,3,6.2,3c1.8,0,5-0.8,5-3v-6.6c0-2.6-3.4-3.5-5.6-3.5
		c-1.8,0-3,0.2-4.3,0.7c-1.4,0.5-0.7,2.6,0.7,2.1c0.7-0.2,1.7-0.6,3.6-0.6c1.5,0,2.6,0.5,3.3,1.2V20.3z"/>
	<path class="st0" d="M182.7,15.9c0-0.3,0.1-0.4,0.4-0.4c0.1,0,0.2,0,0.2,0c0.1,0,0.1,0.1,0.2,0.2l0.6,1.6l0.6-1.6
		c0-0.1,0.1-0.2,0.2-0.2c0.1,0,0.2,0,0.2,0c0.3,0,0.4,0.1,0.4,0.4v2c0,0.1,0,0.1-0.1,0.2c0,0-0.1,0.1-0.2,0.1c-0.1,0-0.1,0-0.2-0.1
		c0,0-0.1-0.1-0.1-0.2v-1.8h0l-0.7,1.8c0,0.1-0.1,0.1-0.1,0.2c0,0-0.1,0.1-0.2,0.1c-0.1,0-0.1,0-0.2-0.1c0,0-0.1-0.1-0.1-0.2
		l-0.7-1.8h0v1.8c0,0.1,0,0.1-0.1,0.2c0,0-0.1,0.1-0.2,0.1c-0.1,0-0.1,0-0.2-0.1c0,0-0.1-0.1-0.1-0.2V15.9z M180.9,15.9h-0.6
		c-0.1,0-0.2-0.1-0.2-0.2c0-0.1,0.1-0.2,0.2-0.2h1.7c0.1,0,0.2,0.1,0.2,0.2c0,0.1-0.1,0.2-0.2,0.2h-0.6v1.9c0,0.1,0,0.1-0.1,0.2
		c0,0-0.1,0.1-0.2,0.1c-0.1,0-0.2,0-0.2-0.1c0,0-0.1-0.1-0.1-0.2V15.9z"/>
</g>
</svg>
