<?xml version="1.0" encoding="UTF-8" standalone="no"?>
<!-- Created with Inkscape (http://www.inkscape.org/) -->

<svg
   xmlns:dc="http://purl.org/dc/elements/1.1/"
   xmlns:cc="http://creativecommons.org/ns#"
   xmlns:rdf="http://www.w3.org/1999/02/22-rdf-syntax-ns#"
   xmlns:svg="http://www.w3.org/2000/svg"
   xmlns="http://www.w3.org/2000/svg"
   xmlns:sodipodi="http://sodipodi.sourceforge.net/DTD/sodipodi-0.dtd"
   xmlns:inkscape="http://www.inkscape.org/namespaces/inkscape"
   version="1.1"
   id="svg815"
   xml:space="preserve"
   width="415.74799"
   height="60.472401"
   viewBox="0 0 415.74799 60.472401"
   sodipodi:docname="micro-vu-logo-black.svg"
   inkscape:version="0.92+devel (c51823602c, 2017-11-04)"><metadata
     id="metadata821"><rdf:RDF><cc:Work
         rdf:about=""><dc:format>image/svg+xml</dc:format><dc:type
           rdf:resource="http://purl.org/dc/dcmitype/StillImage" /><dc:title></dc:title></cc:Work></rdf:RDF></metadata><defs
     id="defs819"><clipPath
       clipPathUnits="userSpaceOnUse"
       id="clipPath831"><path
         d="M 0,45.354 H 311.811 V 0 H 0 Z"
         id="path829"
         inkscape:connector-curvature="0" /></clipPath></defs><sodipodi:namedview
     pagecolor="#ffffff"
     bordercolor="#666666"
     inkscape:document-rotation="0"
     borderopacity="1"
     objecttolerance="10"
     gridtolerance="10"
     guidetolerance="10"
     inkscape:pageopacity="0"
     inkscape:pageshadow="2"
     inkscape:window-width="3840"
     inkscape:window-height="1537"
     id="namedview817"
     showgrid="false"
     inkscape:zoom="7.1557773"
     inkscape:cx="207.87399"
     inkscape:cy="30.2362"
     inkscape:window-x="0"
     inkscape:window-y="0"
     inkscape:window-maximized="1"
     inkscape:current-layer="g823" /><g
     id="g823"
     inkscape:groupmode="layer"
     inkscape:label="micro-vu-logo-black"
     transform="matrix(1.3333333,0,0,-1.3333333,0,60.4724)"><g
       id="g825"><g
         id="g827"
         clip-path="url(#clipPath831)"><g
           id="g833"
           transform="translate(5.6693,3.9712)"><path
             d="M 0,0 V 38.548 H 7.27 L 25.422,15.245 43.201,38.548 h 7.186 V 0 h -8.308 v 23.802 c 0,0.457 0.042,1.038 0.083,1.744 0.083,0.706 0.125,1.496 0.208,2.368 -0.457,-0.997 -0.872,-1.828 -1.246,-2.451 -0.374,-0.623 -0.707,-1.08 -0.997,-1.496 L 25.671,4.652 H 23.885 L 9.346,23.968 C 8.806,24.674 8.35,25.38 7.976,26.004 7.602,26.668 7.311,27.292 7.062,27.873 7.145,27.083 7.186,26.377 7.228,25.713 7.27,25.048 7.27,24.425 7.27,23.802 V 0 Z"
             style="fill:#000000;fill-opacity:1;fill-rule:nonzero;stroke:none"
             id="path835"
             inkscape:connector-curvature="0" /></g><g
           id="g837"
           transform="translate(65.9769,3.9712)"><path
             d="M 0,0 V 0 H 7.685 V 31.769 H 0 Z"
             style="fill:#000000;fill-opacity:1;fill-rule:nonzero;stroke:none"
             id="path839"
             inkscape:connector-curvature="0" /></g><g
           id="g841"
           transform="translate(109.6834,29.7695)"><path
             d="M 0,0 H -20.155 V -19.735 H 0 v 6.648 l 7.538,-1.58 v -3.656 c 0,-2.867 -0.564,-4.861 -1.653,-5.899 -1.129,-1.081 -3.265,-1.579 -6.409,-1.579 h -19.148 c -3.103,0 -5.16,0.498 -6.288,1.537 -1.088,1.039 -1.653,3.033 -1.653,5.941 v 16.702 c 0,2.867 0.565,4.861 1.653,5.9 1.088,1.038 3.185,1.578 6.288,1.578 h 19.148 c 3.184,0 5.321,-0.54 6.409,-1.578 1.089,-1.039 1.653,-3.033 1.653,-5.9 V -4.696 L 0,-5.817 Z"
             style="fill:#000000;fill-opacity:1;fill-rule:nonzero;stroke:none"
             id="path843"
             inkscape:connector-curvature="0" /></g><g
           id="g845"
           transform="translate(133.2,30.2002)"><path
             d="m 0,0 h 16.691 c 1.267,0 2.107,-0.229 2.582,-0.607 0.475,-0.416 0.712,-1.008 0.712,-1.964 v -3.647 c 0,-0.914 -0.237,-1.589 -0.712,-1.963 -0.475,-0.376 -1.315,-0.562 -2.582,-0.562 H 0 Z m -7.344,5.423 v -31.65 H 0 v 12.061 h 6.854 l 12.597,-12.061 h 10.504 l -14.288,12.061 h 4.096 c 2.492,0 4.278,0.453 5.385,1.451 1.108,0.914 1.647,2.42 1.647,4.581 v 7.433 c 0,2.161 -0.539,3.719 -1.647,4.676 -1.107,0.955 -2.893,1.449 -5.385,1.449 H -7.344 Z"
             style="fill:#000000;fill-opacity:1;fill-rule:nonzero;stroke:none"
             id="path847"
             inkscape:connector-curvature="0" /></g><path
           d="m 175.428,29.788 h 23.335 V 10.065 h -23.335 z m 0.427,5.824 c -1.435,0 -4.465,-0.039 -5.941,-1.588 -1.572,-1.649 -1.547,-5.89 -1.547,-5.89 V 11.449 c 0,-2.908 0.523,-4.857 1.549,-5.937 1.025,-1.038 2.977,-1.541 5.94,-1.541 h 22.48 c 2.925,0 4.872,0.503 5.898,1.541 1.026,1.081 1.581,3.029 1.581,5.937 v 16.685 c 0,2.866 -0.551,4.85 -1.538,5.889 -1.026,1.039 -2.978,1.588 -5.941,1.588 h -22.48 z"
           style="fill:#000000;fill-opacity:1;fill-rule:nonzero;stroke:none"
           id="path849"
           inkscape:connector-curvature="0" /><g
           id="g851"
           transform="translate(241.054,3.9712)"><path
             d="m 0,0 -20.398,38.548 h 9.382 L 3.267,10.675 16.904,38.548 H 25.07 L 5.66,0 Z"
             style="fill:#000000;fill-opacity:1;fill-rule:nonzero;stroke:none"
             id="path853"
             inkscape:connector-curvature="0" /></g><g
           id="g855"
           transform="translate(276.6761,35.6304)"><path
             d="M 0,0 V -25.724 H 20.678 V 0 h 7.268 v -24.145 c 0,-2.908 -0.544,-4.861 -1.632,-5.942 -1.088,-1.08 -3.148,-1.579 -6.18,-1.579 H 0.544 c -3.032,0 -5.053,0.499 -6.103,1.538 -1.049,1.08 -1.593,3.075 -1.593,5.983 l 0,24.145 z"
             style="fill:#000000;fill-opacity:1;fill-rule:nonzero;stroke:none"
             id="path857"
             inkscape:connector-curvature="0" /></g><g
           id="g859"
           transform="translate(217.7991,23.6978)"><path
             d="m 0,0 c 2.348,0 4.252,-1.904 4.252,-4.252 0,-2.349 -1.904,-4.252 -4.252,-4.252 -2.348,0 -4.252,1.903 -4.252,4.252 C -4.252,-1.904 -2.348,0 0,0"
             style="fill:#000000;fill-opacity:1;fill-rule:nonzero;stroke:none"
             id="path861"
             inkscape:connector-curvature="0" /></g></g></g></g></svg>