<?xml version="1.0" encoding="utf-8"?>
<!-- Generator: Adobe Illustrator 12.0.1, SVG Export Plug-In . SVG Version: 6.00 Build 51448)  -->
<!DOCTYPE svg PUBLIC "-//W3C//DTD SVG 1.1//EN" "http://www.w3.org/Graphics/SVG/1.1/DTD/svg11.dtd" [
	<!ENTITY ns_svg "http://www.w3.org/2000/svg">
	<!ENTITY ns_xlink "http://www.w3.org/1999/xlink">
]>
<svg  version="1.1" id="Calque_2" xmlns="&ns_svg;" xmlns:xlink="&ns_xlink;" width="130.248" height="39.07"
	 viewBox="0 0 130.248 39.07" overflow="visible" enable-background="new 0 0 130.248 39.07" xml:space="preserve">
<g>
	<path d="M68.105,0.194L64.296,15.47H60.78L58.239,5.365l-2.43,10.105H52.31L48.402,0.194h3.647l2.102,9.322
		c0.008,0.045,0.049,0.21,0.123,0.492c0.03,0.104,0.071,0.262,0.124,0.471l2.503-10.285h3.296l2.587,10.285
		c0.052-0.194,0.125-0.515,0.222-0.963l2.16-9.322H68.105z"/>
	<path d="M74.012,6.117c1.161,0,1.796,0.782,1.898,2.346h-3.988C72.071,6.898,72.767,6.117,74.012,6.117z M77.634,5.487
		c-1.04-1.026-2.286-1.54-3.739-1.54c-1.61,0-2.928,0.552-3.953,1.654c-1.025,1.103-1.537,2.553-1.537,4.348
		c0,1.207,0.254,2.243,0.765,3.107c0.511,0.865,1.158,1.522,1.944,1.973c0.785,0.451,1.741,0.676,2.865,0.676
		c2.576,0,4.286-1.304,5.127-3.911l-3.02-0.224c-0.222,1.192-0.887,1.789-1.992,1.789c-0.594,0-1.104-0.204-1.531-0.615
		c-0.427-0.409-0.641-1.017-0.641-1.821c0-0.148,0.004-0.324,0.012-0.525h7.26C79.194,8.15,78.673,6.514,77.634,5.487z"/>
	<path d="M89.764,6.906l-2.434,0.648c-0.286-1.016-1.022-1.525-2.214-1.525c-1.125,0-1.686,0.339-1.686,1.017
		c0,0.269,0.101,0.483,0.306,0.643c0.205,0.161,0.742,0.296,1.609,0.406c1.293,0.169,2.248,0.366,2.869,0.589
		c0.619,0.224,1.11,0.601,1.474,1.129c0.362,0.53,0.544,1.182,0.544,1.957c0,1.163-0.443,2.109-1.328,2.841
		c-0.886,0.729-2.122,1.095-3.713,1.095c-2.883,0-4.604-1.113-5.162-3.34l2.814-0.413c0.231,1.016,1.068,1.524,2.513,1.524
		c0.552,0,1.019-0.098,1.4-0.296c0.381-0.197,0.573-0.463,0.573-0.798c-0.002-0.521-0.424-0.831-1.269-0.928
		c-2.286-0.288-3.791-0.728-4.512-1.319c-0.722-0.593-1.081-1.418-1.081-2.476c0-1.074,0.418-1.96,1.256-2.661
		c0.837-0.7,2.01-1.051,3.52-1.051c1.195,0,2.153,0.234,2.87,0.704C88.833,5.12,89.383,5.872,89.764,6.906z"/>
	<path d="M96.083,6.762v4.777c0,0.595,0.09,0.995,0.268,1.196s0.596,0.302,1.257,0.302c0.303,0,0.656-0.015,1.056-0.045v2.467
		c-0.97,0.164-1.668,0.246-2.093,0.246c-1.389,0-2.375-0.267-2.956-0.799c-0.582-0.533-0.874-1.497-0.874-2.89V6.762h-1.788v-2.58
		h1.993l0.265-3.325l2.873-0.223v3.547h2.434v2.58H96.083z"/>
	<path d="M105.199,6.117c1.162,0,1.796,0.782,1.898,2.346h-3.987C103.258,6.898,103.955,6.117,105.199,6.117z M108.822,5.487
		c-1.041-1.026-2.287-1.54-3.74-1.54c-1.61,0-2.928,0.552-3.952,1.654c-1.024,1.103-1.538,2.553-1.538,4.348
		c0,1.207,0.255,2.243,0.767,3.107c0.509,0.865,1.158,1.522,1.942,1.973c0.786,0.451,1.74,0.676,2.866,0.676
		c2.576,0,4.286-1.304,5.127-3.911l-3.02-0.224c-0.222,1.192-0.888,1.789-1.992,1.789c-0.594,0-1.105-0.204-1.532-0.615
		c-0.427-0.409-0.64-1.017-0.64-1.821c0-0.148,0.004-0.324,0.011-0.525h7.261C110.381,8.15,109.861,6.514,108.822,5.487z"/>
	<path d="M115.703,15.47h-3.225V4.182h3.049v2.083c0.471-1.564,1.285-2.346,2.443-2.346c0.164,0,0.366,0.012,0.606,0.034v3.279
		c-0.682,0-1.212,0.105-1.589,0.314c-0.378,0.209-0.688,0.584-0.926,1.126c-0.24,0.542-0.359,1.272-0.359,2.192V15.47z"/>
	<path d="M130.248,15.47h-3.343V9.124c0-0.769-0.029-1.294-0.09-1.578c-0.059-0.283-0.203-0.524-0.434-0.722
		c-0.229-0.198-0.519-0.297-0.867-0.297c-1.163,0-1.746,0.866-1.746,2.597v6.346h-3.343V4.182h3.108v1.906
		c0.513-0.906,1.021-1.49,1.519-1.75c0.499-0.26,1.039-0.39,1.62-0.39c1.072,0,1.937,0.289,2.591,0.866
		c0.656,0.577,0.984,1.711,0.984,3.403V15.47z"/>
	<path d="M54.809,22.609c0.753,0,1.398,0.158,1.936,0.476c0.536,0.316,0.985,0.868,1.347,1.655c0.362,0.787,0.543,1.644,0.543,2.568
		c0,1.316-0.316,2.462-0.951,3.437c-0.634,0.975-1.604,1.462-2.909,1.462h-1.476v-9.598H54.809z M49.78,35.083h5.254
		c2.266,0,4.043-0.733,5.331-2.201c1.291-1.469,1.935-3.297,1.935-5.486c0-1.741-0.369-3.179-1.106-4.316
		c-0.738-1.138-1.572-1.97-2.504-2.496c-0.932-0.525-2.348-0.789-4.248-0.789H49.78V35.083z"/>
	<path d="M67.821,23.782v11.301h-3.343V23.782H67.821z M67.821,19.5v3.343h-3.343V19.5H67.821z"/>
	<path d="M76.781,25.847c0.32,0.341,0.482,0.738,0.482,1.188c0,0.481-0.171,0.891-0.51,1.228c-0.339,0.339-0.807,0.507-1.402,0.507
		c-1.228,0-1.842-0.578-1.842-1.734c0-0.51,0.162-0.922,0.486-1.233c0.322-0.311,0.771-0.466,1.345-0.466
		C75.982,25.335,76.462,25.505,76.781,25.847z M81.807,21.935c-0.297-0.06-0.608-0.089-0.935-0.089
		c-1.002,0-1.656,0.206-1.964,0.617c-0.309,0.412-0.495,0.937-0.562,1.574c-0.962-0.327-1.957-0.491-2.984-0.491
		c-1.624,0-2.896,0.329-3.816,0.986s-1.38,1.513-1.38,2.566c0,1.295,0.664,2.219,1.992,2.771c-1.504,0.605-2.256,1.45-2.256,2.535
		c0,0.867,0.479,1.54,1.438,2.017c-1.291,0.351-1.938,1.026-1.938,2.028c0,0.759,0.398,1.384,1.196,1.879
		c0.796,0.493,2.338,0.74,4.625,0.74c2.434,0,4.13-0.357,5.087-1.07c0.957-0.717,1.437-1.591,1.437-2.624
		c0-0.722-0.224-1.325-0.671-1.81s-0.998-0.791-1.654-0.917c-0.656-0.128-1.853-0.235-3.588-0.325
		c-1.223-0.059-1.994-0.152-2.314-0.281c-0.321-0.127-0.48-0.387-0.48-0.778c0-0.353,0.188-0.641,0.57-0.866
		c0.566,0.109,1.148,0.163,1.744,0.163c1.679,0,2.963-0.315,3.854-0.95c0.891-0.634,1.338-1.485,1.338-2.554
		c0-0.799-0.304-1.514-0.909-2.147c0.125-0.654,0.556-0.981,1.29-0.981c0.237,0,0.53,0.037,0.88,0.111V21.935z M73.502,35.06
		c0.141,0.022,0.416,0.033,0.826,0.033L75,35.083c1.66,0,2.681,0.078,3.065,0.236c0.384,0.155,0.576,0.379,0.576,0.671
		c0,0.381-0.229,0.657-0.688,0.83c-0.458,0.17-1.257,0.256-2.397,0.256c-0.87,0-1.631-0.062-2.277-0.188
		c-0.647-0.128-0.972-0.445-0.972-0.953c0-0.254,0.103-0.471,0.307-0.648c0.205-0.18,0.374-0.27,0.51-0.27
		C73.218,35.016,73.345,35.031,73.502,35.06z"/>
	<path d="M86.555,23.782v11.301h-3.343V23.782H86.555z M86.555,19.5v3.343h-3.343V19.5H86.555z"/>
	<path d="M93.064,26.362v4.785c0,0.597,0.09,0.997,0.268,1.198c0.178,0.202,0.596,0.302,1.258,0.302
		c0.302,0,0.655-0.016,1.055-0.045v2.469c-0.969,0.165-1.667,0.246-2.092,0.246c-1.39,0-2.375-0.266-2.956-0.799
		c-0.583-0.531-0.874-1.497-0.874-2.894v-5.263h-1.789v-2.58h1.994l0.264-3.325l2.873-0.223v3.548h2.434v2.58H93.064z"/>
	<path d="M103.835,30.707c0,0.712-0.195,1.312-0.586,1.798c-0.393,0.487-0.876,0.729-1.451,0.729c-0.447,0-0.79-0.142-1.032-0.428
		c-0.24-0.286-0.36-0.626-0.36-1.021c0-1.173,1.143-1.875,3.43-2.105V30.707z M107.178,32.969V27.84c0-0.99-0.066-1.688-0.201-2.086
		c-0.132-0.399-0.389-0.777-0.771-1.135c-0.377-0.357-0.904-0.626-1.583-0.805c-0.676-0.179-1.396-0.269-2.162-0.269
		c-1.279,0-2.423,0.268-3.435,0.802c-1.011,0.535-1.616,1.442-1.817,2.722l3.078,0.29c0.133-1.096,0.775-1.644,1.929-1.644
		c1.079,0,1.619,0.548,1.619,1.642v0.648c-2.21,0.165-3.73,0.418-4.566,0.758c-0.834,0.34-1.44,0.81-1.817,1.408
		c-0.376,0.598-0.564,1.251-0.564,1.962c0,0.973,0.322,1.746,0.969,2.321c0.647,0.575,1.496,0.861,2.546,0.861
		c0.709,0,1.343-0.132,1.902-0.396c0.557-0.266,1.117-0.801,1.678-1.608c0,0.732,0.048,1.322,0.147,1.77h3.225
		C107.237,34.659,107.178,33.954,107.178,32.969z"/>
	<path d="M109.929,35.083V19.793h3.342v15.289H109.929z"/>
	<g>
		<rect x="0.019" y="0.073" fill="#5292C9" width="8.928" height="8.928"/>
		<rect x="26.598" y="26.451" fill="#5292C9" width="8.928" height="8.929"/>
		<polygon fill="#5292C9" points="26.671,13.17 26.671,18.467 18.89,26.451 13.354,26.451 13.354,35.379 22.282,35.379 
			22.282,30.116 29.84,22.098 35.599,22.098 35.599,13.17 		"/>
		<polygon fill="#5292C9" points="30.377,8.928 35.544,8.928 35.544,0 26.616,0 26.616,5.383 5.336,26.524 0,26.524 0,35.453 
			8.928,35.453 8.928,30.307 		"/>
		<polygon fill="#5292C9" points="5.761,13.244 0.073,13.244 0.073,22.171 9.001,22.171 9.001,17.074 16.68,8.929 22.301,8.929 
			22.301,0 13.373,0 13.373,5.434 		"/>
	</g>
</g>
</svg>
