<?xml version="1.0" encoding="utf-8"?>
<!-- Generator: Adobe Illustrator 19.2.0, SVG Export Plug-In . SVG Version: 6.00 Build 0)  -->
<svg version="1.1" id="Layer_1" xmlns="http://www.w3.org/2000/svg" xmlns:xlink="http://www.w3.org/1999/xlink" x="0px" y="0px"
	 viewBox="0 0 216 216" style="enable-background:new 0 0 216 216;" xml:space="preserve">
<style type="text/css">
	.st0{fill:none;stroke:#FFFFFF;stroke-width:5;stroke-miterlimit:10;}
</style>
<circle class="st0" cx="113.7" cy="120.1" r="72"/>
<path class="st0" d="M96.6,157.7c34.9,0,54-28.9,54-54c0-0.8,0-1.6-0.1-2.5c3.7-2.7,6.9-6,9.5-9.8c-3.5,1.5-7.1,2.5-10.9,3
	c4-2.4,6.9-6.1,8.3-10.5c-3.7,2.2-7.8,3.8-12.1,4.6c-7.2-7.6-19.2-8-26.9-0.8c-4.9,4.6-7,11.5-5.5,18.1c-15.3-0.8-29.5-8-39.1-19.8
	c-5,8.7-2.5,19.8,5.9,25.3c-3-0.1-6-0.9-8.6-2.4v0.2c0,9,6.4,16.8,15.2,18.6c-2.8,0.8-5.7,0.9-8.6,0.3c2.5,7.7,9.6,13,17.7,13.2
	c-6.7,5.3-15,8.2-23.6,8.1c-1.5,0-3-0.1-4.5-0.3C76.2,154.7,86.3,157.7,96.6,157.7"/>
</svg>
