<svg data-name="Layer 1" xmlns="http://www.w3.org/2000/svg" viewBox="0 0 216 216"><circle cx="113.741" cy="120.067" r="72" stroke-miterlimit="10" stroke-width="5" fill="#0f96f5" stroke="#0f96f5"/><path d="M96.573 157.662c34.92 0 54.02-28.93 54.02-54.019 0-.822 0-1.64-.056-2.454a38.629 38.629 0 0 0 9.472-9.827 37.896 37.896 0 0 1-10.904 2.987 19.052 19.052 0 0 0 8.346-10.501 38.047 38.047 0 0 1-12.055 4.608 19.003 19.003 0 0 0-32.355 17.316 53.9 53.9 0 0 1-39.128-19.837 19 19 0 0 0 5.878 25.344 18.844 18.844 0 0 1-8.617-2.376v.24a18.992 18.992 0 0 0 15.231 18.612 18.955 18.955 0 0 1-8.572.325 19.007 19.007 0 0 0 17.737 13.185 38.096 38.096 0 0 1-23.578 8.143 38.647 38.647 0 0 1-4.52-.274 53.75 53.75 0 0 0 29.101 8.514" fill="none" stroke="#fff" stroke-miterlimit="10" stroke-width="5"/></svg>